<svg width="210" height="75" viewBox="0 0 210 75" fill="none" xmlns="http://www.w3.org/2000/svg">
<path opacity="0.3" d="M62.0197 61.7341C48.8375 75.3348 27.4654 75.4214 14.171 61.9939C23.5668 71.4365 38.6282 71.3499 47.9399 61.7629C57.3077 52.0894 57.3077 36.4097 47.9119 26.765C38.516 17.0914 23.2864 17.1203 13.9186 26.7938C4.63491 36.3519 4.57882 51.8295 13.7222 61.5031C0.680238 47.8157 0.764387 25.8698 13.9466 12.2691C27.213 -1.41822 48.7253 -1.41822 62.0197 12.2402C75.286 25.8987 75.286 48.0756 62.0197 61.7341Z" fill="#4863F7"/>
<path opacity="0.6" d="M47.9384 61.7338C38.6267 71.3206 23.5652 71.4072 14.1694 61.9648C14.0853 61.8781 14.0292 61.8204 13.9451 61.7338L13.917 61.7049C19.4423 67.3645 28.3614 67.3645 33.8867 61.7049C39.384 56.0162 39.384 46.8335 33.8867 41.145C28.3614 35.5141 19.4142 35.5141 13.917 41.1739C8.44778 46.8047 8.41974 55.9007 13.8048 61.5894C13.8048 61.5894 13.8048 61.5894 13.7768 61.5605C13.7768 61.5605 13.7768 61.5605 13.7487 61.5316L13.7207 61.5028L13.6926 61.4739C4.57726 51.8292 4.63335 36.3515 13.9451 26.7645C23.3408 17.0911 38.5426 17.0911 47.9384 26.7357C57.3343 36.4092 57.3343 52.0891 47.9384 61.7338Z" fill="#4863F7"/>
<path opacity="0.4" d="M13.9187 61.7382C13.862 61.68 13.8052 61.622 13.7485 61.564L13.7769 61.593C13.8336 61.651 13.8903 61.7091 13.9187 61.7382Z" fill="#4863F7"/>
<path d="M33.891 61.7351C28.3937 67.4236 19.4466 67.4236 13.9213 61.7351C13.8652 61.6773 13.8371 61.6484 13.781 61.5907C8.39596 55.902 8.42401 46.806 13.8932 41.1752C19.3905 35.4865 28.3376 35.4865 33.863 41.1752C39.3883 46.8348 39.3883 56.0464 33.891 61.7351Z" fill="#4863F7"/>
<path d="M86.2106 20.7099C88.2986 20.7099 90.1303 21.118 91.7058 21.9342C93.3002 22.7504 94.5245 23.9178 95.3787 25.4363C96.2518 26.9358 96.6884 28.6821 96.6884 30.6752C96.6884 32.6682 96.2518 34.4145 95.3787 35.9141C94.5245 37.3946 93.3002 38.543 91.7058 39.3592C90.1303 40.1754 88.2986 40.5835 86.2106 40.5835H79.2634V20.7099H86.2106ZM86.0683 37.1953C88.1562 37.1953 89.7697 36.6259 90.9086 35.487C92.0474 34.3481 92.6169 32.7441 92.6169 30.6752C92.6169 28.6062 92.0474 26.9928 90.9086 25.8349C89.7697 24.658 88.1562 24.0696 86.0683 24.0696H83.2495V37.1953H86.0683ZM114.335 32.355C114.335 32.9245 114.297 33.437 114.222 33.8925H102.69C102.785 35.0314 103.184 35.9235 103.886 36.5689C104.588 37.2143 105.452 37.537 106.477 37.537C107.958 37.537 109.011 36.9011 109.637 35.6293H113.937C113.481 37.1478 112.608 38.4006 111.317 39.3877C110.027 40.3557 108.442 40.8397 106.562 40.8397C105.044 40.8397 103.677 40.5076 102.462 39.8432C101.267 39.1599 100.327 38.2013 99.6437 36.9675C98.9794 35.7337 98.6472 34.3101 98.6472 32.6967C98.6472 31.0643 98.9794 29.6312 99.6437 28.3974C100.308 27.1636 101.238 26.2145 102.434 25.5502C103.63 24.8858 105.006 24.5536 106.562 24.5536C108.062 24.5536 109.4 24.8763 110.577 25.5217C111.773 26.1671 112.694 27.0877 113.339 28.2835C114.003 29.4603 114.335 30.8175 114.335 32.355ZM110.207 31.2161C110.188 30.1911 109.818 29.3749 109.097 28.7675C108.375 28.1411 107.493 27.8279 106.449 27.8279C105.462 27.8279 104.626 28.1316 103.943 28.7391C103.279 29.3275 102.871 30.1532 102.719 31.2161H110.207ZM123.281 40.8397C121.99 40.8397 120.832 40.612 119.807 40.1564C118.782 39.6819 117.966 39.046 117.359 38.2488C116.77 37.4516 116.448 36.5689 116.391 35.6009H120.405C120.481 36.2083 120.775 36.7113 121.288 37.1099C121.819 37.5085 122.474 37.7078 123.253 37.7078C124.012 37.7078 124.6 37.5559 125.018 37.2522C125.454 36.9485 125.673 36.5594 125.673 36.0849C125.673 35.5724 125.407 35.1928 124.875 34.946C124.363 34.6803 123.537 34.3955 122.398 34.0918C121.222 33.8071 120.253 33.5129 119.494 33.2092C118.754 32.9055 118.109 32.4404 117.558 31.8141C117.027 31.1877 116.761 30.343 116.761 29.28C116.761 28.4069 117.008 27.6097 117.501 26.8884C118.014 26.1671 118.735 25.5976 119.665 25.18C120.614 24.7624 121.725 24.5536 122.996 24.5536C124.875 24.5536 126.375 25.0282 127.495 25.9772C128.615 26.9073 129.232 28.1696 129.346 29.7641H125.53C125.473 29.1377 125.208 28.6441 124.733 28.2835C124.278 27.9039 123.661 27.7141 122.882 27.7141C122.161 27.7141 121.601 27.8469 121.203 28.1127C120.823 28.3784 120.633 28.7485 120.633 29.2231C120.633 29.7546 120.899 30.1627 121.43 30.4474C121.962 30.7131 122.788 30.9884 123.907 31.2731C125.046 31.5578 125.986 31.852 126.726 32.1557C127.466 32.4594 128.102 32.934 128.634 33.5793C129.184 34.2057 129.469 35.0409 129.488 36.0849C129.488 36.996 129.232 37.8122 128.719 38.5335C128.226 39.2548 127.504 39.8242 126.555 40.2418C125.625 40.6404 124.534 40.8397 123.281 40.8397ZM131.735 32.6397C131.735 31.0453 132.048 29.6312 132.675 28.3974C133.32 27.1636 134.184 26.2145 135.266 25.5502C136.367 24.8858 137.591 24.5536 138.939 24.5536C140.115 24.5536 141.14 24.7909 142.014 25.2654C142.906 25.74 143.617 26.3379 144.149 27.0592V24.8099H148.164V40.5835H144.149V38.2772C143.636 39.0175 142.925 39.6344 142.014 40.1279C141.121 40.6025 140.087 40.8397 138.91 40.8397C137.581 40.8397 136.367 40.4981 135.266 39.8147C134.184 39.1314 133.32 38.1728 132.675 36.9391C132.048 35.6863 131.735 34.2532 131.735 32.6397ZM144.149 32.6967C144.149 31.7286 143.959 30.9029 143.579 30.2196C143.2 29.5173 142.687 28.9858 142.042 28.6252C141.397 28.2455 140.704 28.0557 139.964 28.0557C139.223 28.0557 138.54 28.236 137.914 28.5967C137.287 28.9573 136.775 29.4888 136.376 30.1911C135.996 30.8745 135.807 31.6907 135.807 32.6397C135.807 33.5888 135.996 34.424 136.376 35.1453C136.775 35.8476 137.287 36.3886 137.914 36.7682C138.559 37.1478 139.242 37.3377 139.964 37.3377C140.704 37.3377 141.397 37.1573 142.042 36.7967C142.687 36.4171 143.2 35.8856 143.579 35.2022C143.959 34.4999 144.149 33.6647 144.149 32.6967ZM159.289 28.0842H156.527V40.5835H152.484V28.0842H150.69V24.8099H152.484V24.0127C152.484 22.0766 153.034 20.6529 154.135 19.7418C155.236 18.8307 156.897 18.4036 159.118 18.4606V21.8203C158.15 21.8013 157.476 21.9627 157.096 22.3043C156.717 22.646 156.527 23.2629 156.527 24.155V24.8099H159.289V28.0842ZM163.893 22.9307C163.191 22.9307 162.603 22.7124 162.128 22.2759C161.672 21.8203 161.445 21.2603 161.445 20.596C161.445 19.9316 161.672 19.3812 162.128 18.9446C162.603 18.4891 163.191 18.2613 163.893 18.2613C164.596 18.2613 165.175 18.4891 165.63 18.9446C166.105 19.3812 166.342 19.9316 166.342 20.596C166.342 21.2603 166.105 21.8203 165.63 22.2759C165.175 22.7124 164.596 22.9307 163.893 22.9307ZM165.858 24.8099V40.5835H161.872V24.8099H165.858ZM176.8 40.8397C175.282 40.8397 173.915 40.5076 172.7 39.8432C171.486 39.1599 170.527 38.2013 169.825 36.9675C169.141 35.7337 168.8 34.3101 168.8 32.6967C168.8 31.0833 169.151 29.6597 169.853 28.4259C170.574 27.1921 171.552 26.243 172.786 25.5786C174.02 24.8953 175.396 24.5536 176.914 24.5536C178.433 24.5536 179.809 24.8953 181.043 25.5786C182.277 26.243 183.245 27.1921 183.947 28.4259C184.668 29.6597 185.029 31.0833 185.029 32.6967C185.029 34.3101 184.659 35.7337 183.918 36.9675C183.197 38.2013 182.21 39.1599 180.957 39.8432C179.723 40.5076 178.338 40.8397 176.8 40.8397ZM176.8 37.3661C177.522 37.3661 178.195 37.1953 178.822 36.8536C179.467 36.493 179.98 35.9615 180.359 35.2592C180.739 34.5569 180.929 33.7027 180.929 32.6967C180.929 31.1972 180.53 30.0488 179.733 29.2516C178.955 28.4353 177.996 28.0272 176.857 28.0272C175.718 28.0272 174.76 28.4353 173.982 29.2516C173.222 30.0488 172.843 31.1972 172.843 32.6967C172.843 34.1962 173.213 35.3541 173.953 36.1703C174.712 36.9675 175.661 37.3661 176.8 37.3661ZM193.989 40.8397C192.698 40.8397 191.54 40.612 190.515 40.1564C189.49 39.6819 188.674 39.046 188.067 38.2488C187.478 37.4516 187.156 36.5689 187.099 35.6009H191.113C191.189 36.2083 191.483 36.7113 191.996 37.1099C192.527 37.5085 193.182 37.7078 193.96 37.7078C194.72 37.7078 195.308 37.5559 195.726 37.2522C196.162 36.9485 196.381 36.5594 196.381 36.0849C196.381 35.5724 196.115 35.1928 195.583 34.946C195.071 34.6803 194.245 34.3955 193.106 34.0918C191.929 33.8071 190.961 33.5129 190.202 33.2092C189.462 32.9055 188.816 32.4404 188.266 31.8141C187.734 31.1877 187.469 30.343 187.469 29.28C187.469 28.4069 187.716 27.6097 188.209 26.8884C188.722 26.1671 189.443 25.5976 190.373 25.18C191.322 24.7624 192.432 24.5536 193.704 24.5536C195.583 24.5536 197.083 25.0282 198.203 25.9772C199.323 26.9073 199.94 28.1696 200.053 29.7641H196.238C196.181 29.1377 195.916 28.6441 195.441 28.2835C194.985 27.9039 194.369 27.7141 193.59 27.7141C192.869 27.7141 192.309 27.8469 191.91 28.1127C191.531 28.3784 191.341 28.7485 191.341 29.2231C191.341 29.7546 191.607 30.1627 192.138 30.4474C192.67 30.7131 193.495 30.9884 194.615 31.2731C195.754 31.5578 196.694 31.852 197.434 32.1557C198.174 32.4594 198.81 32.934 199.342 33.5793C199.892 34.2057 200.177 35.0409 200.196 36.0849C200.196 36.996 199.94 37.8122 199.427 38.5335C198.934 39.2548 198.212 39.8242 197.263 40.2418C196.333 40.6404 195.242 40.8397 193.989 40.8397Z" fill="white"/>
<path d="M78.2384 60.3478C78.2384 58.7533 78.5516 57.3392 79.178 56.1054C79.8234 54.8716 80.6965 53.9225 81.7974 53.2582C82.8984 52.5938 84.1227 52.2616 85.4704 52.2616C86.4954 52.2616 87.4729 52.4894 88.403 52.945C89.3331 53.3815 90.0734 53.97 90.6238 54.7103V47.2221H94.6669V68.2915H90.6238V65.9568C90.1303 66.735 89.4375 67.3614 88.5454 67.8359C87.6532 68.3105 86.6187 68.5478 85.4419 68.5478C84.1132 68.5478 82.8984 68.2061 81.7974 67.5228C80.6965 66.8394 79.8234 65.8809 79.178 64.6471C78.5516 63.3943 78.2384 61.9612 78.2384 60.3478ZM90.6523 60.4047C90.6523 59.4366 90.4625 58.6109 90.0829 57.9276C89.7032 57.2253 89.1907 56.6938 88.5454 56.3332C87.9 55.9535 87.2072 55.7637 86.4669 55.7637C85.7266 55.7637 85.0433 55.944 84.4169 56.3047C83.7905 56.6653 83.278 57.1968 82.8794 57.8991C82.4998 58.5825 82.3099 59.3987 82.3099 60.3478C82.3099 61.2968 82.4998 62.132 82.8794 62.8533C83.278 63.5556 83.7905 64.0966 84.4169 64.4762C85.0623 64.8559 85.7456 65.0457 86.4669 65.0457C87.2072 65.0457 87.9 64.8653 88.5454 64.5047C89.1907 64.1251 89.7032 63.5936 90.0829 62.9103C90.4625 62.2079 90.6523 61.3728 90.6523 60.4047ZM100.582 50.6387C99.8792 50.6387 99.2908 50.4204 98.8163 49.9839C98.3607 49.5283 98.1329 48.9684 98.1329 48.304C98.1329 47.6397 98.3607 47.0892 98.8163 46.6526C99.2908 46.1971 99.8792 45.9693 100.582 45.9693C101.284 45.9693 101.863 46.1971 102.318 46.6526C102.793 47.0892 103.03 47.6397 103.03 48.304C103.03 48.9684 102.793 49.5283 102.318 49.9839C101.863 50.4204 101.284 50.6387 100.582 50.6387ZM102.546 52.5179V68.2915H98.56V52.5179H102.546ZM112.521 68.5478C111.23 68.5478 110.072 68.32 109.047 67.8644C108.022 67.3899 107.206 66.754 106.598 65.9568C106.01 65.1596 105.687 64.2769 105.63 63.3089H109.645C109.721 63.9163 110.015 64.4193 110.527 64.8179C111.059 65.2165 111.714 65.4158 112.492 65.4158C113.251 65.4158 113.84 65.264 114.257 64.9603C114.694 64.6566 114.912 64.2674 114.912 63.7929C114.912 63.2804 114.646 62.9008 114.115 62.654C113.602 62.3883 112.777 62.1035 111.638 61.7998C110.461 61.5151 109.493 61.2209 108.734 60.9172C107.993 60.6135 107.348 60.1484 106.798 59.5221C106.266 58.8957 106 58.051 106 56.988C106 56.1149 106.247 55.3177 106.741 54.5964C107.253 53.8751 107.974 53.3056 108.905 52.888C109.854 52.4704 110.964 52.2616 112.236 52.2616C114.115 52.2616 115.615 52.7362 116.734 53.6853C117.854 54.6153 118.471 55.8776 118.585 57.4721H114.77C114.713 56.8457 114.447 56.3522 113.973 55.9915C113.517 55.6119 112.9 55.4221 112.122 55.4221C111.401 55.4221 110.841 55.5549 110.442 55.8207C110.062 56.0864 109.873 56.4565 109.873 56.9311C109.873 57.4626 110.138 57.8707 110.67 58.1554C111.201 58.4211 112.027 58.6964 113.147 58.9811C114.286 59.2658 115.225 59.56 115.966 59.8637C116.706 60.1674 117.342 60.642 117.873 61.2873C118.424 61.9137 118.708 62.7489 118.727 63.7929C118.727 64.704 118.471 65.5202 117.959 66.2415C117.465 66.9628 116.744 67.5322 115.795 67.9498C114.865 68.3484 113.773 68.5478 112.521 68.5478ZM120.975 60.4047C120.975 58.7723 121.307 57.3487 121.971 56.1339C122.635 54.9001 123.556 53.951 124.733 53.2866C125.91 52.6033 127.257 52.2616 128.776 52.2616C130.731 52.2616 132.344 52.7552 133.616 53.7422C134.907 54.7103 135.771 56.0769 136.207 57.8422H131.908C131.68 57.1589 131.291 56.6274 130.741 56.2478C130.209 55.8491 129.545 55.6498 128.747 55.6498C127.609 55.6498 126.707 56.0674 126.043 56.9026C125.378 57.7188 125.046 58.8862 125.046 60.4047C125.046 61.9042 125.378 63.0716 126.043 63.9068C126.707 64.723 127.609 65.1311 128.747 65.1311C130.361 65.1311 131.414 64.4098 131.908 62.9672H136.207C135.771 64.6755 134.907 66.0327 133.616 67.0387C132.325 68.0447 130.712 68.5478 128.776 68.5478C127.257 68.5478 125.91 68.2156 124.733 67.5512C123.556 66.8679 122.635 65.9188 121.971 64.704C121.307 63.4702 120.975 62.0371 120.975 60.4047ZM146.132 68.5478C144.613 68.5478 143.246 68.2156 142.032 67.5512C140.817 66.8679 139.858 65.9093 139.156 64.6755C138.473 63.4417 138.131 62.0181 138.131 60.4047C138.131 58.7913 138.482 57.3677 139.184 56.1339C139.906 54.9001 140.883 53.951 142.117 53.2866C143.351 52.6033 144.727 52.2616 146.245 52.2616C147.764 52.2616 149.14 52.6033 150.374 53.2866C151.608 53.951 152.576 54.9001 153.278 56.1339C153.999 57.3677 154.36 58.7913 154.36 60.4047C154.36 62.0181 153.99 63.4417 153.25 64.6755C152.528 65.9093 151.541 66.8679 150.288 67.5512C149.055 68.2156 147.669 68.5478 146.132 68.5478ZM146.132 65.0741C146.853 65.0741 147.527 64.9033 148.153 64.5616C148.798 64.201 149.311 63.6695 149.691 62.9672C150.07 62.2649 150.26 61.4107 150.26 60.4047C150.26 58.9052 149.861 57.7568 149.064 56.9596C148.286 56.1434 147.327 55.7353 146.188 55.7353C145.05 55.7353 144.091 56.1434 143.313 56.9596C142.554 57.7568 142.174 58.9052 142.174 60.4047C142.174 61.9042 142.544 63.0621 143.284 63.8783C144.044 64.6755 144.993 65.0741 146.132 65.0741ZM163.861 64.6186L167.847 52.5179H172.09L166.253 68.2915H161.412L155.604 52.5179H159.875L163.861 64.6186ZM188.992 60.063C188.992 60.6325 188.954 61.145 188.878 61.6005H177.346C177.441 62.7394 177.84 63.6316 178.542 64.2769C179.245 64.9223 180.108 65.245 181.133 65.245C182.614 65.245 183.667 64.6091 184.294 63.3373H188.593C188.137 64.8559 187.264 66.1086 185.974 67.0957C184.683 68.0637 183.098 68.5478 181.219 68.5478C179.7 68.5478 178.333 68.2156 177.119 67.5512C175.923 66.8679 174.983 65.9093 174.3 64.6755C173.636 63.4417 173.303 62.0181 173.303 60.4047C173.303 58.7723 173.636 57.3392 174.3 56.1054C174.964 54.8716 175.894 53.9225 177.09 53.2582C178.286 52.5938 179.662 52.2616 181.219 52.2616C182.718 52.2616 184.056 52.5843 185.233 53.2297C186.429 53.8751 187.35 54.7957 187.995 55.9915C188.659 57.1684 188.992 58.5255 188.992 60.063ZM184.863 58.9241C184.844 57.8991 184.474 57.0829 183.753 56.4755C183.031 55.8491 182.149 55.5359 181.105 55.5359C180.118 55.5359 179.283 55.8397 178.599 56.4471C177.935 57.0355 177.527 57.8612 177.375 58.9241H184.863ZM195.887 54.9665C196.4 54.1313 197.064 53.4765 197.88 53.0019C198.715 52.5274 199.665 52.2901 200.727 52.2901V56.4755H199.674C198.421 56.4755 197.472 56.7697 196.827 57.3582C196.2 57.9466 195.887 58.9716 195.887 60.4332V68.2915H191.901V52.5179H195.887V54.9665Z" fill="#4863F7"/>
<path d="M83.0864 12.1025C82.6081 12.1025 82.1791 12.0228 81.7994 11.8633C81.4198 11.6963 81.1199 11.4685 80.8997 11.18C80.6795 10.8839 80.5581 10.546 80.5353 10.1664H81.6058C81.6362 10.4777 81.7805 10.732 82.0386 10.9294C82.3044 11.1269 82.6498 11.2256 83.075 11.2256C83.4698 11.2256 83.7811 11.1382 84.0089 10.9636C84.2367 10.789 84.3506 10.5688 84.3506 10.3031C84.3506 10.0297 84.2291 9.82852 83.9861 9.69944C83.7431 9.56278 83.3673 9.42991 82.8586 9.30083C82.3955 9.17935 82.0158 9.05787 81.7197 8.93639C81.4312 8.80731 81.1806 8.6213 80.9681 8.37833C80.7631 8.12778 80.6606 7.8013 80.6606 7.39889C80.6606 7.08 80.7555 6.78769 80.9453 6.52194C81.1351 6.2562 81.4046 6.04741 81.7539 5.89556C82.1031 5.73611 82.5018 5.65639 82.9497 5.65639C83.6406 5.65639 84.1987 5.83102 84.6239 6.18028C85.0491 6.52954 85.2769 7.00787 85.3072 7.61528H84.2708C84.2481 7.2888 84.1152 7.02685 83.8722 6.82944C83.6369 6.63204 83.318 6.53333 82.9156 6.53333C82.5435 6.53333 82.2474 6.61306 82.0272 6.7725C81.807 6.93194 81.6969 7.14074 81.6969 7.39889C81.6969 7.60389 81.7615 7.77472 81.8906 7.91139C82.0272 8.04046 82.1943 8.14676 82.3917 8.23028C82.5967 8.3062 82.8776 8.39352 83.2344 8.49222C83.6824 8.6137 84.0469 8.73519 84.3278 8.85667C84.6087 8.97056 84.8479 9.14519 85.0453 9.38056C85.2503 9.61593 85.3566 9.92343 85.3642 10.3031C85.3642 10.6447 85.2693 10.9522 85.0794 11.2256C84.8896 11.4989 84.6201 11.7153 84.2708 11.8747C83.9292 12.0266 83.5344 12.1025 83.0864 12.1025ZM89.5491 12.1025C88.9645 12.1025 88.433 11.9696 87.9547 11.7039C87.484 11.4381 87.1119 11.0623 86.8386 10.5764C86.5728 10.0829 86.44 9.51343 86.44 8.86806C86.44 8.23028 86.5766 7.66843 86.85 7.1825C87.1309 6.68898 87.5105 6.31315 87.9889 6.055C88.4672 5.78926 89.0025 5.65639 89.5947 5.65639C90.1869 5.65639 90.7222 5.78926 91.2005 6.055C91.6789 6.31315 92.0547 6.68519 92.328 7.17111C92.609 7.65704 92.7494 8.22269 92.7494 8.86806C92.7494 9.51343 92.6052 10.0829 92.3166 10.5764C92.0357 11.0623 91.6523 11.4381 91.1664 11.7039C90.6804 11.9696 90.1414 12.1025 89.5491 12.1025ZM89.5491 11.1914C89.9212 11.1914 90.2704 11.1041 90.5969 10.9294C90.9234 10.7548 91.1853 10.4929 91.3827 10.1436C91.5877 9.79435 91.6902 9.36917 91.6902 8.86806C91.6902 8.36694 91.5915 7.94176 91.3941 7.5925C91.1967 7.24324 90.9386 6.98509 90.6197 6.81806C90.3008 6.64343 89.9553 6.55611 89.5833 6.55611C89.2037 6.55611 88.8544 6.64343 88.5355 6.81806C88.2242 6.98509 87.9737 7.24324 87.7839 7.5925C87.594 7.94176 87.4991 8.36694 87.4991 8.86806C87.4991 9.37676 87.5902 9.80574 87.7725 10.155C87.9623 10.5043 88.2128 10.7662 88.5241 10.9408C88.8354 11.1079 89.1771 11.1914 89.5491 11.1914ZM95.1485 3.57222V12H94.1121V3.57222H95.1485ZM102.45 5.75889V12H101.413V11.0775C101.216 11.3964 100.939 11.6469 100.582 11.8292C100.233 12.0038 99.8456 12.0911 99.4204 12.0911C98.9344 12.0911 98.4979 11.9924 98.1106 11.795C97.7234 11.59 97.4159 11.2863 97.1881 10.8839C96.968 10.4815 96.8579 9.99176 96.8579 9.41472V5.75889H97.8829V9.27806C97.8829 9.89306 98.0385 10.3676 98.3498 10.7017C98.6611 11.0281 99.0863 11.1914 99.6254 11.1914C100.18 11.1914 100.616 11.0206 100.935 10.6789C101.254 10.3372 101.413 9.83991 101.413 9.18694V5.75889H102.45ZM106.853 11.2256C107.309 11.2256 107.688 11.1193 107.992 10.9067C108.296 10.6941 108.505 10.3904 108.619 9.99556H109.735C109.583 10.5878 109.283 11.0737 108.835 11.4533C108.395 11.8254 107.84 12.038 107.172 12.0911V12.6606C107.62 12.653 107.977 12.7479 108.243 12.9453C108.508 13.1427 108.641 13.4236 108.641 13.7881C108.641 14.1449 108.512 14.4296 108.254 14.6422C107.996 14.8548 107.662 14.9611 107.252 14.9611H105.942V14.2892H107.047C107.297 14.2892 107.48 14.2512 107.594 14.1753C107.715 14.0994 107.776 13.9703 107.776 13.7881C107.776 13.6134 107.715 13.4881 107.594 13.4122C107.48 13.3363 107.297 13.2983 107.047 13.2983H106.477V12.0797C105.954 12.0266 105.49 11.8633 105.088 11.59C104.686 11.3091 104.371 10.937 104.143 10.4739C103.923 10.0031 103.812 9.46787 103.812 8.86806C103.812 8.22269 103.942 7.66083 104.2 7.1825C104.458 6.69657 104.815 6.32074 105.27 6.055C105.733 5.78926 106.261 5.65639 106.853 5.65639C107.62 5.65639 108.25 5.84241 108.744 6.21444C109.245 6.58648 109.575 7.10278 109.735 7.76333H108.619C108.512 7.3837 108.303 7.0838 107.992 6.86361C107.688 6.64343 107.309 6.53333 106.853 6.53333C106.261 6.53333 105.783 6.73833 105.418 7.14833C105.054 7.55074 104.872 8.12398 104.872 8.86806C104.872 9.61972 105.054 10.2006 105.418 10.6106C105.783 11.0206 106.261 11.2256 106.853 11.2256ZM113.84 12.1025C113.255 12.1025 112.723 11.9696 112.245 11.7039C111.774 11.4381 111.402 11.0623 111.129 10.5764C110.863 10.0829 110.73 9.51343 110.73 8.86806C110.73 8.23028 110.867 7.66843 111.14 7.1825C111.421 6.68898 111.801 6.31315 112.279 6.055C112.758 5.78926 113.293 5.65639 113.885 5.65639C114.477 5.65639 115.013 5.78926 115.491 6.055C115.969 6.31315 116.345 6.68519 116.618 7.17111C116.899 7.65704 117.04 8.22269 117.04 8.86806C117.04 9.51343 116.896 10.0829 116.607 10.5764C116.326 11.0623 115.943 11.4381 115.457 11.7039C114.971 11.9696 114.432 12.1025 113.84 12.1025ZM113.84 11.1914C114.212 11.1914 114.561 11.1041 114.887 10.9294C115.214 10.7548 115.476 10.4929 115.673 10.1436C115.878 9.79435 115.981 9.36917 115.981 8.86806C115.981 8.36694 115.882 7.94176 115.685 7.5925C115.487 7.24324 115.229 6.98509 114.91 6.81806C114.591 6.64343 114.246 6.55611 113.874 6.55611C113.494 6.55611 113.145 6.64343 112.826 6.81806C112.515 6.98509 112.264 7.24324 112.074 7.5925C111.884 7.94176 111.79 8.36694 111.79 8.86806C111.79 9.37676 111.881 9.80574 112.063 10.155C112.253 10.5043 112.503 10.7662 112.815 10.9408C113.126 11.1079 113.467 11.1914 113.84 11.1914ZM112.222 5.00722C112.275 4.62 112.401 4.32389 112.598 4.11889C112.803 3.91389 113.057 3.81139 113.361 3.81139C113.505 3.81139 113.627 3.83796 113.726 3.89111C113.832 3.93667 113.957 4.005 114.101 4.09611C114.208 4.17204 114.303 4.23278 114.386 4.27833C114.47 4.3163 114.561 4.33528 114.66 4.33528C114.789 4.33528 114.899 4.29352 114.99 4.21C115.081 4.12648 115.138 4.005 115.161 3.84556H115.753C115.707 4.22519 115.582 4.5175 115.377 4.7225C115.172 4.9275 114.918 5.03 114.614 5.03C114.47 5.03 114.341 5.00722 114.227 4.96167C114.12 4.90852 113.999 4.83259 113.862 4.73389C113.741 4.65796 113.642 4.60102 113.566 4.56306C113.498 4.52509 113.414 4.50611 113.316 4.50611C113.187 4.50611 113.076 4.54787 112.985 4.63139C112.902 4.71491 112.849 4.84019 112.826 5.00722H112.222ZM124.097 8.64028C124.097 8.83769 124.085 9.04648 124.063 9.26667H119.074C119.112 9.88167 119.321 10.3638 119.701 10.7131C120.088 11.0547 120.555 11.2256 121.102 11.2256C121.55 11.2256 121.922 11.1231 122.218 10.9181C122.521 10.7055 122.734 10.4245 122.855 10.0753H123.972C123.805 10.6751 123.47 11.1648 122.969 11.5444C122.468 11.9165 121.846 12.1025 121.102 12.1025C120.509 12.1025 119.978 11.9696 119.507 11.7039C119.044 11.4381 118.68 11.0623 118.414 10.5764C118.148 10.0829 118.015 9.51343 118.015 8.86806C118.015 8.22269 118.144 7.65704 118.402 7.17111C118.661 6.68519 119.021 6.31315 119.484 6.055C119.955 5.78926 120.494 5.65639 121.102 5.65639C121.694 5.65639 122.218 5.78546 122.673 6.04361C123.129 6.30176 123.478 6.65861 123.721 7.11417C123.972 7.56213 124.097 8.07083 124.097 8.64028ZM123.026 8.42389C123.026 8.02907 122.939 7.6912 122.764 7.41028C122.59 7.12176 122.351 6.90537 122.047 6.76111C121.751 6.60926 121.42 6.53333 121.056 6.53333C120.532 6.53333 120.084 6.70037 119.712 7.03444C119.348 7.36852 119.139 7.83167 119.086 8.42389H123.026ZM127.674 12.1025C127.196 12.1025 126.767 12.0228 126.387 11.8633C126.008 11.6963 125.708 11.4685 125.488 11.18C125.267 10.8839 125.146 10.546 125.123 10.1664H126.194C126.224 10.4777 126.368 10.732 126.627 10.9294C126.892 11.1269 127.238 11.2256 127.663 11.2256C128.058 11.2256 128.369 11.1382 128.597 10.9636C128.825 10.789 128.938 10.5688 128.938 10.3031C128.938 10.0297 128.817 9.82852 128.574 9.69944C128.331 9.56278 127.955 9.42991 127.447 9.30083C126.983 9.17935 126.604 9.05787 126.308 8.93639C126.019 8.80731 125.769 8.6213 125.556 8.37833C125.351 8.12778 125.248 7.8013 125.248 7.39889C125.248 7.08 125.343 6.78769 125.533 6.52194C125.723 6.2562 125.993 6.04741 126.342 5.89556C126.691 5.73611 127.09 5.65639 127.538 5.65639C128.229 5.65639 128.787 5.83102 129.212 6.18028C129.637 6.52954 129.865 7.00787 129.895 7.61528H128.859C128.836 7.2888 128.703 7.02685 128.46 6.82944C128.225 6.63204 127.906 6.53333 127.503 6.53333C127.131 6.53333 126.835 6.61306 126.615 6.7725C126.395 6.93194 126.285 7.14074 126.285 7.39889C126.285 7.60389 126.349 7.77472 126.478 7.91139C126.615 8.04046 126.782 8.14676 126.98 8.23028C127.185 8.3062 127.466 8.39352 127.822 8.49222C128.27 8.6137 128.635 8.73519 128.916 8.85667C129.197 8.97056 129.436 9.14519 129.633 9.38056C129.838 9.61593 129.945 9.92343 129.952 10.3031C129.952 10.6447 129.857 10.9522 129.667 11.2256C129.478 11.4989 129.208 11.7153 128.859 11.8747C128.517 12.0266 128.122 12.1025 127.674 12.1025Z" fill="#4863F7"/>
</svg>
